<svg width="500" height="500" viewBox="0 0 500 500" fill="none" xmlns="http://www.w3.org/2000/svg">
<rect width="500" height="500" fill="black"/>
<path d="M413 353C413 386.137 386.137 413 353 413H148C114.863 413 88 386.137 88 353V148C88 114.863 114.863 88 148 88H353C386.137 88 413 114.863 413 148V353ZM199.25 323C199.25 356.137 226.113 383 259.25 383H323C356.137 383 383 356.137 383 323V259.25C383 226.113 356.137 199.25 323 199.25H259.25C226.113 199.25 199.25 226.113 199.25 259.25V323ZM118 357.375C118 371.527 129.473 383 143.625 383C157.777 383 169.25 371.527 169.25 357.375V224.875C169.25 210.723 157.777 199.25 143.625 199.25C129.473 199.25 118 210.723 118 224.875V357.375ZM118 143.625C118 157.777 129.473 169.25 143.625 169.25C157.777 169.25 169.25 157.777 169.25 143.625C169.25 129.473 157.777 118 143.625 118C129.473 118 118 129.473 118 143.625ZM199.25 143.625C199.25 157.777 210.723 169.25 224.875 169.25H357.375C371.527 169.25 383 157.777 383 143.625C383 129.473 371.527 118 357.375 118H224.875C210.723 118 199.25 129.473 199.25 143.625Z" fill="white"/>
</svg>
